<svg width="117" height="49" viewBox="0 0 117 49" fill="none" xmlns="http://www.w3.org/2000/svg">
<path d="M16.6121 20.6401C16.4255 20.6401 16.2575 20.5748 16.1081 20.4441C15.9775 20.2948 15.9121 20.1268 15.9121 19.9401V1.74011C15.9121 1.53477 15.9775 1.36677 16.1081 1.23611C16.2575 1.10544 16.4255 1.0401 16.6121 1.0401H20.3081C20.5135 1.0401 20.6815 1.10544 20.8121 1.23611C20.9428 1.36677 21.0081 1.53477 21.0081 1.74011V16.4121H29.4921C29.6975 16.4121 29.8655 16.4868 29.9961 16.6361C30.1268 16.7668 30.1921 16.9348 30.1921 17.1401V19.9401C30.1921 20.1268 30.1268 20.2948 29.9961 20.4441C29.8655 20.5748 29.6975 20.6401 29.4921 20.6401H16.6121ZM40.3811 20.9201C37.7491 20.9201 35.6771 20.2761 34.1651 18.9881C32.6531 17.7001 31.8504 15.8054 31.7571 13.3041C31.7384 12.7628 31.7291 11.9601 31.7291 10.8961C31.7291 9.81344 31.7384 9.00144 31.7571 8.46011C31.8504 5.99611 32.6624 4.10144 34.1931 2.77611C35.7424 1.43211 37.8051 0.760105 40.3811 0.760105C42.9571 0.760105 45.0198 1.43211 46.5691 2.77611C48.1184 4.10144 48.9304 5.99611 49.0051 8.46011C49.0424 9.54277 49.0611 10.3548 49.0611 10.8961C49.0611 11.4188 49.0424 12.2214 49.0051 13.3041C48.9118 15.8054 48.1091 17.7001 46.5971 18.9881C45.0851 20.2761 43.0131 20.9201 40.3811 20.9201ZM40.3811 16.8881C41.4078 16.8881 42.2198 16.5801 42.8171 15.9641C43.4331 15.3481 43.7598 14.4054 43.7971 13.1361C43.8344 12.0534 43.8531 11.2881 43.8531 10.8401C43.8531 10.3548 43.8344 9.58944 43.7971 8.54411C43.7598 7.27477 43.4331 6.33211 42.8171 5.7161C42.2011 5.1001 41.3891 4.7921 40.3811 4.7921C39.3731 4.7921 38.5611 5.1001 37.9451 5.7161C37.3478 6.33211 37.0211 7.27477 36.9651 8.54411C36.9464 9.06677 36.9371 9.83211 36.9371 10.8401C36.9371 11.8294 36.9464 12.5948 36.9651 13.1361C37.0211 14.4054 37.3478 15.3481 37.9451 15.9641C38.5424 16.5801 39.3544 16.8881 40.3811 16.8881ZM57.1443 20.6401C56.9577 20.6401 56.7897 20.5748 56.6403 20.4441C56.5097 20.2948 56.4443 20.1268 56.4443 19.9401V13.9201L49.9483 1.93611C49.8923 1.7681 49.8643 1.66544 49.8643 1.62811C49.8643 1.47877 49.9203 1.34811 50.0323 1.23611C50.163 1.10544 50.3123 1.0401 50.4803 1.0401H53.9803C54.3537 1.0401 54.6803 1.23611 54.9603 1.62811L58.9643 8.85211L62.9963 1.62811C63.2203 1.23611 63.547 1.0401 63.9763 1.0401H67.4763C67.6443 1.0401 67.7843 1.10544 67.8963 1.23611C68.0083 1.34811 68.0643 1.47877 68.0643 1.62811C68.0643 1.72144 68.0457 1.82411 68.0083 1.93611L61.5123 13.9201V19.9401C61.5123 20.1454 61.4377 20.3134 61.2883 20.4441C61.1577 20.5748 60.9897 20.6401 60.7843 20.6401H57.1443ZM67.0734 20.6401C66.9241 20.6401 66.7841 20.5841 66.6534 20.4721C66.5414 20.3414 66.4854 20.2014 66.4854 20.0521C66.4854 19.9401 66.4947 19.8561 66.5134 19.8001L73.0934 1.8241C73.1494 1.60011 73.2707 1.41344 73.4574 1.26411C73.6441 1.11477 73.8867 1.0401 74.1854 1.0401H78.3294C78.6281 1.0401 78.8707 1.11477 79.0574 1.26411C79.2441 1.41344 79.3654 1.60011 79.4214 1.8241L85.9734 19.8001L86.0294 20.0521C86.0294 20.2014 85.9641 20.3414 85.8334 20.4721C85.7214 20.5841 85.5814 20.6401 85.4134 20.6401H81.9694C81.5214 20.6401 81.2227 20.4441 81.0734 20.0521L79.9814 17.1961H72.5054L71.4414 20.0521C71.2921 20.4441 70.9841 20.6401 70.5174 20.6401H67.0734ZM78.8614 13.1641L76.2574 5.77211L73.6534 13.1641H78.8614ZM88.9364 20.6401C88.7497 20.6401 88.5817 20.5748 88.4324 20.4441C88.3017 20.2948 88.2364 20.1268 88.2364 19.9401V1.74011C88.2364 1.53477 88.3017 1.36677 88.4324 1.23611C88.5817 1.10544 88.7497 1.0401 88.9364 1.0401H92.6324C92.8377 1.0401 93.0057 1.10544 93.1364 1.23611C93.267 1.36677 93.3324 1.53477 93.3324 1.74011V16.4121H101.816C102.022 16.4121 102.19 16.4868 102.32 16.6361C102.451 16.7668 102.516 16.9348 102.516 17.1401V19.9401C102.516 20.1268 102.451 20.2948 102.32 20.4441C102.19 20.5748 102.022 20.6401 101.816 20.6401H88.9364Z" fill="#FCFCFC"/>
<path d="M4.54229 48.6401C4.22496 48.6401 3.97296 48.5561 3.78629 48.3881C3.59962 48.2014 3.48762 47.9774 3.45029 47.7161L0.398289 29.8241C0.379622 29.7681 0.370289 29.7028 0.370289 29.6281C0.370289 29.4788 0.426289 29.3481 0.538289 29.2361C0.668956 29.1054 0.808956 29.0401 0.958289 29.0401H4.43029C4.95296 29.0401 5.24229 29.2454 5.29829 29.6561L7.11829 40.5761L9.13429 34.1361C9.33962 33.6321 9.64762 33.3801 10.0583 33.3801H12.0743C12.541 33.3801 12.849 33.6321 12.9983 34.1361L15.0143 40.5761L16.8343 29.6561C16.8903 29.2454 17.1796 29.0401 17.7023 29.0401H21.1743C21.3423 29.0401 21.4823 29.1054 21.5943 29.2361C21.725 29.3481 21.7903 29.4788 21.7903 29.6281L21.7623 29.8241L18.7103 47.7161C18.673 47.9774 18.5516 48.2014 18.3463 48.3881C18.1596 48.5561 17.917 48.6401 17.6183 48.6401H14.9583C14.6596 48.6401 14.4263 48.5654 14.2583 48.4161C14.0903 48.2668 13.969 48.0988 13.8943 47.9121L11.0663 39.9041L8.23829 47.9121C8.07029 48.3974 7.72496 48.6401 7.20229 48.6401H4.54229ZM22.7355 48.6401C22.5862 48.6401 22.4462 48.5841 22.3155 48.4721C22.2035 48.3414 22.1475 48.2014 22.1475 48.0521C22.1475 47.9401 22.1568 47.8561 22.1755 47.8001L28.7555 29.8241C28.8115 29.6001 28.9328 29.4134 29.1195 29.2641C29.3062 29.1148 29.5488 29.0401 29.8475 29.0401H33.9915C34.2902 29.0401 34.5328 29.1148 34.7195 29.2641C34.9062 29.4134 35.0275 29.6001 35.0835 29.8241L41.6355 47.8001L41.6915 48.0521C41.6915 48.2014 41.6262 48.3414 41.4955 48.4721C41.3835 48.5841 41.2435 48.6401 41.0755 48.6401H37.6315C37.1835 48.6401 36.8848 48.4441 36.7355 48.0521L35.6435 45.1961H28.1675L27.1035 48.0521C26.9542 48.4441 26.6462 48.6401 26.1795 48.6401H22.7355ZM34.5235 41.1641L31.9195 33.7721L29.3155 41.1641H34.5235ZM51.5803 48.9201C48.8923 48.9201 46.7923 48.2668 45.2803 46.9601C43.7683 45.6348 42.9657 43.7588 42.8723 41.3321C42.8537 40.7908 42.8443 39.9321 42.8443 38.7561C42.8443 37.5801 42.8537 36.7214 42.8723 36.1801C42.9657 33.8094 43.7777 31.9801 45.3083 30.6921C46.8577 29.4041 48.9483 28.7601 51.5803 28.7601C53.3537 28.7601 54.8937 29.0494 56.2003 29.6281C57.5257 30.2068 58.5337 30.9441 59.2243 31.8401C59.9337 32.7361 60.307 33.6601 60.3443 34.6121C60.3443 34.7801 60.279 34.9201 60.1483 35.0321C60.0363 35.1441 59.8963 35.2001 59.7283 35.2001H55.6403C55.4537 35.2001 55.3043 35.1721 55.1923 35.1161C55.0803 35.0601 54.987 34.9574 54.9123 34.8081C54.6697 34.2668 54.287 33.8001 53.7643 33.4081C53.2417 32.9974 52.5137 32.7921 51.5803 32.7921C49.359 32.7921 48.1923 33.9681 48.0803 36.3201C48.0617 36.8428 48.0523 37.6548 48.0523 38.7561C48.0523 39.8388 48.0617 40.6508 48.0803 41.1921C48.1923 43.6561 49.387 44.8881 51.6643 44.8881C52.7657 44.8881 53.643 44.6081 54.2963 44.0481C54.9683 43.4694 55.3043 42.5921 55.3043 41.4161V40.8841H52.6723C52.467 40.8841 52.299 40.8188 52.1683 40.6881C52.0377 40.5388 51.9723 40.3614 51.9723 40.1561V38.0841C51.9723 37.8788 52.0377 37.7108 52.1683 37.5801C52.299 37.4308 52.467 37.3561 52.6723 37.3561H59.7283C59.9337 37.3561 60.1017 37.4308 60.2323 37.5801C60.363 37.7108 60.4283 37.8788 60.4283 38.0841V41.2761C60.4283 42.8628 60.0643 44.2348 59.3363 45.3921C58.6083 46.5308 57.5723 47.4081 56.2283 48.0241C54.903 48.6214 53.3537 48.9201 51.5803 48.9201ZM64.3407 48.6401C64.154 48.6401 63.986 48.5748 63.8367 48.4441C63.706 48.2948 63.6407 48.1268 63.6407 47.9401V29.7401C63.6407 29.5348 63.706 29.3668 63.8367 29.2361C63.986 29.1054 64.154 29.0401 64.3407 29.0401H77.4167C77.622 29.0401 77.79 29.1054 77.9207 29.2361C78.0513 29.3668 78.1167 29.5348 78.1167 29.7401V32.3721C78.1167 32.5588 78.0513 32.7268 77.9207 32.8761C77.79 33.0068 77.622 33.0721 77.4167 33.0721H68.4847V36.8521H76.8007C77.006 36.8521 77.174 36.9268 77.3047 37.0761C77.4353 37.2068 77.5007 37.3748 77.5007 37.5801V40.0161C77.5007 40.2028 77.4353 40.3708 77.3047 40.5201C77.174 40.6508 77.006 40.7161 76.8007 40.7161H68.4847V44.6081H77.6407C77.846 44.6081 78.014 44.6734 78.1447 44.8041C78.2753 44.9348 78.3407 45.1028 78.3407 45.3081V47.9401C78.3407 48.1268 78.2753 48.2948 78.1447 48.4441C78.014 48.5748 77.846 48.6401 77.6407 48.6401H64.3407ZM82.2235 48.6401C82.0368 48.6401 81.8688 48.5748 81.7195 48.4441C81.5888 48.2948 81.5235 48.1268 81.5235 47.9401V29.7401C81.5235 29.5348 81.5888 29.3668 81.7195 29.2361C81.8688 29.1054 82.0368 29.0401 82.2235 29.0401H89.8395C92.2848 29.0401 94.1888 29.6001 95.5515 30.7201C96.9328 31.8214 97.6235 33.3894 97.6235 35.4241C97.6235 36.7308 97.3155 37.8414 96.6995 38.7561C96.0835 39.6708 95.2341 40.3708 94.1515 40.8561L97.9875 47.7441C98.0435 47.8561 98.0715 47.9588 98.0715 48.0521C98.0715 48.2014 98.0061 48.3414 97.8755 48.4721C97.7635 48.5841 97.6328 48.6401 97.4835 48.6401H93.7595C93.2181 48.6401 92.8355 48.3881 92.6115 47.8841L89.4195 41.7241H86.5635V47.9401C86.5635 48.1454 86.4888 48.3134 86.3395 48.4441C86.2088 48.5748 86.0408 48.6401 85.8355 48.6401H82.2235ZM89.7835 37.7481C90.6421 37.7481 91.2955 37.5428 91.7435 37.1321C92.1915 36.7028 92.4155 36.1148 92.4155 35.3681C92.4155 34.6214 92.1915 34.0334 91.7435 33.6041C91.3141 33.1561 90.6608 32.9321 89.7835 32.9321H86.5635V37.7481H89.7835ZM108.191 48.9201C106.418 48.9201 104.896 48.6588 103.627 48.1361C102.358 47.6134 101.396 46.9321 100.743 46.0921C100.108 45.2334 99.7722 44.3001 99.7349 43.2921C99.7349 43.1428 99.7909 43.0121 99.9029 42.9001C100.034 42.7694 100.183 42.7041 100.351 42.7041H103.879C104.103 42.7041 104.28 42.7508 104.411 42.8441C104.56 42.9188 104.71 43.0401 104.859 43.2081C105.102 43.6934 105.494 44.0948 106.035 44.4121C106.576 44.7294 107.295 44.8881 108.191 44.8881C109.255 44.8881 110.067 44.7201 110.627 44.3841C111.187 44.0481 111.467 43.5908 111.467 43.0121C111.467 42.6014 111.318 42.2654 111.019 42.0041C110.739 41.7428 110.291 41.5094 109.675 41.3041C109.059 41.0988 108.144 40.8654 106.931 40.6041C104.691 40.1374 103.011 39.4561 101.891 38.5601C100.79 37.6454 100.239 36.3481 100.239 34.6681C100.239 33.5294 100.556 32.5121 101.191 31.6161C101.826 30.7201 102.731 30.0201 103.907 29.5161C105.083 29.0121 106.455 28.7601 108.023 28.7601C109.647 28.7601 111.056 29.0401 112.251 29.6001C113.446 30.1601 114.351 30.8694 114.967 31.7281C115.602 32.5681 115.938 33.3988 115.975 34.2201C115.975 34.3881 115.919 34.5281 115.807 34.6401C115.695 34.7521 115.555 34.8081 115.387 34.8081H111.691C111.467 34.8081 111.28 34.7708 111.131 34.6961C111 34.6214 110.879 34.5001 110.767 34.3321C110.655 33.9028 110.347 33.5388 109.843 33.2401C109.358 32.9414 108.751 32.7921 108.023 32.7921C107.183 32.7921 106.539 32.9414 106.091 33.2401C105.643 33.5388 105.419 33.9774 105.419 34.5561C105.419 34.9481 105.54 35.2748 105.783 35.5361C106.044 35.7974 106.455 36.0401 107.015 36.2641C107.594 36.4694 108.415 36.6841 109.479 36.9081C111.215 37.2254 112.596 37.6268 113.623 38.1121C114.668 38.5788 115.434 39.1948 115.919 39.9601C116.404 40.7068 116.647 41.6494 116.647 42.7881C116.647 44.0388 116.283 45.1308 115.555 46.0641C114.846 46.9788 113.847 47.6881 112.559 48.1921C111.29 48.6774 109.834 48.9201 108.191 48.9201Z" fill="#F3BE00"/>
</svg>
