<svg width="178" height="178" viewBox="0 0 178 178" fill="#F3BE00" xmlns="http://www.w3.org/2000/svg">
<path fill-rule="evenodd" clip-rule="evenodd" d="M41.7517 0.312993C36.2952 1.46749 33.2252 2.36099 29.9107 3.75849C18.6097 8.52499 8.09166 19.136 3.51416 30.388C0.0696633 38.8565 0.251662 35.5835 0.251662 89C0.251662 134.772 0.300163 137.43 1.19816 140.75C6.02416 158.598 19.8332 172.311 37.5017 176.798C41.0607 177.702 43.6982 177.75 89.2517 177.75C134.778 177.75 137.432 177.701 140.752 176.803C158.6 171.977 172.312 158.169 176.799 140.5C177.703 136.941 177.752 134.303 177.752 88.75C177.752 35.2245 177.962 38.743 174.227 29.876C169.419 18.462 158.227 7.51199 147.04 3.27599C138.568 0.0679939 142.377 0.275493 90.2517 0.184493C64.1267 0.138493 42.3017 0.196493 41.7517 0.312993ZM152.252 20.451C154.878 21.6705 156.407 23.185 157.548 25.6975C159.763 30.5765 157.468 36.201 152.304 38.546C149.787 39.689 147.554 39.7445 145.111 38.7235C142.646 37.694 140.584 35.701 139.45 33.25C137.229 28.4525 139.551 22.792 144.699 20.454C147.302 19.272 149.711 19.271 152.252 20.451ZM98.7517 40.447C114.599 43.735 128.056 54.545 134.354 69.046C137.023 75.1915 138.078 79.994 138.353 87.25C138.761 98.019 136.324 106.921 130.506 115.914C123.727 126.391 113.473 133.789 101.206 137.053C95.2422 138.639 85.6362 138.885 79.5017 137.609C66.1267 134.825 54.9197 127.256 47.5447 116.025C30.3262 89.802 41.9562 53.8555 71.2637 42.714C79.6917 39.5105 90.1002 38.652 98.7517 40.447ZM80.7517 60.42C70.6947 63.4325 62.8432 71.5155 60.2402 81.5355C59.1172 85.86 59.4107 94.577 60.8142 98.5635C63.7862 107.004 70.6147 113.867 79.2857 117.126C81.8177 118.078 83.2397 118.242 89.0017 118.242C94.7637 118.242 96.1857 118.078 98.7177 117.126C107.38 113.87 113.891 107.357 117.123 98.716C118.588 94.799 118.739 84.3085 117.392 80C114.761 71.582 107.179 63.8535 98.5652 60.809C94.5372 59.385 84.9087 59.175 80.7517 60.42Z" fill="#F3BE00"/>
</svg>
