<svg width="43" height="51" viewBox="0 0 43 51" fill="none" xmlns="http://www.w3.org/2000/svg">
<path d="M16.5647 27.5123C16.5443 27.9814 16.6616 28.3996 16.937 28.7769C17.0644 28.9656 17.2378 29.139 17.4469 29.2869L17.605 25.6714C16.9625 26.212 16.6004 26.8137 16.5647 27.5123ZM20.4453 34.5596L20.583 40.5514C20.9451 40.5973 21.2714 40.6738 21.6794 40.6738C21.9292 40.6738 22.1077 40.6279 22.3321 40.6075L22.4086 35.0492C22.2148 35.0084 22.0414 34.9625 21.8324 34.9115C21.3326 34.7942 20.889 34.6769 20.4453 34.5596ZM34.5451 17.645C32.3779 15.539 27.0898 12.3621 26.5901 10.7201C26.534 10.5671 26.4932 10.4243 26.4524 10.2866C26.9215 10.2407 27.2785 9.95007 27.2785 9.59311C27.2785 9.20556 26.845 8.8894 26.3147 8.8894H26.2637C26.3912 7.37489 27.8139 6.54879 29.2315 1.72988C23.6018 -0.00390291 23.7089 1.34233 19.4204 3.48407C16.2434 4.15208 16.4678 -0.228275 12.4546 1.79108C14.4944 6.17653 16.167 7.35959 16.5392 8.9047C16.0752 8.95569 15.7182 9.24126 15.7182 9.59821C15.7182 9.95007 16.0752 10.2407 16.5392 10.2917C16.529 10.3631 16.5188 10.4243 16.4984 10.5008C16.065 12.2244 10.578 15.386 8.24764 17.645C3.13807 22.6118 -7.13716 49.9495 11.5112 50.6073C20.2822 50.9133 21.3938 50.9133 21.3938 50.9133C21.3938 50.9133 22.5106 50.9133 31.2815 50.6073C49.9299 49.9495 39.6598 22.6067 34.5451 17.645ZM29.7109 37.0175C29.5987 38.068 29.2009 39.0369 28.5176 39.9497C27.8292 40.837 26.9011 41.5356 25.713 42.0557C25.4427 42.1781 25.1367 42.2393 24.8461 42.3311L24.7084 44.2739C24.6778 44.8043 24.122 45.2632 23.4591 45.2785C22.7961 45.2938 22.2658 44.8757 22.276 44.3453L22.2964 42.7849C22.0924 42.79 21.9088 42.8308 21.6998 42.8308C21.3224 42.8257 20.991 42.8002 20.6391 42.7696L20.6748 44.3402C20.685 44.8655 20.1547 45.2836 19.4968 45.2632C18.8339 45.2479 18.2781 44.789 18.2475 44.2535L18.0996 42.3056C17.3194 42.0455 16.6208 41.714 16.0446 41.2959C14.7238 40.2913 13.7703 38.6136 13.2297 36.6606C13.143 35.7937 13.7244 35.1359 14.5658 35.2022C15.4174 35.2735 16.1976 36.0792 16.2689 36.9716C16.5494 38.1496 17.0695 38.8584 17.8599 39.506L17.4826 33.5806C16.9523 33.3766 16.4933 33.1675 16.167 32.9941C15.2134 32.4638 14.5199 31.7601 14.0711 30.8983C13.6275 30.0365 13.4337 29.1084 13.4847 28.1089C13.5306 27.2063 13.7703 26.3649 14.2037 25.6C14.632 24.83 15.2032 24.1875 15.9069 23.6572C16.3862 23.2951 17.0389 22.9739 17.8294 22.6832L18.0129 20.5313C18.0639 19.955 18.6606 19.4553 19.3592 19.4247C20.0629 19.3941 20.6187 19.8377 20.6085 20.4038L20.5626 22.1529C20.7309 22.1478 20.8941 22.1223 21.0675 22.1223C21.5315 22.1172 21.9292 22.1682 22.3576 22.2039L22.327 20.3987C22.3168 19.8275 22.8828 19.3839 23.5865 19.4094C24.2954 19.44 24.892 19.9295 24.9379 20.5007L25.1113 22.7699C25.1826 22.7954 25.2591 22.8107 25.3254 22.8311C26.5289 23.3257 27.4213 23.9631 28.0179 24.7484C28.6145 25.5337 29.0684 26.8086 29.3437 28.1395C29.3845 29.0625 28.7318 29.807 27.8598 29.7866C26.9572 29.7662 26.1719 28.9452 26.1362 27.9661C26.0087 27.2471 25.713 26.7576 25.3407 26.3037L25.458 31.8315C26.2025 32.0762 26.8093 32.2955 27.2275 32.4842C28.1403 32.8921 28.8134 33.4888 29.2417 34.2486C29.6701 35.0186 29.8231 35.9467 29.7109 37.0175ZM25.5855 36.013C25.5243 35.9671 25.407 35.9263 25.3101 35.8855L25.0399 39.8375C25.0807 39.812 25.1418 39.8018 25.1826 39.7661C25.9679 39.1695 26.3912 38.4759 26.4626 37.6855C26.5289 36.9665 26.2382 36.4056 25.5855 36.013ZM21.2918 24.6821C20.9808 24.6821 20.7717 24.7331 20.4912 24.7586L20.4147 30.3883C20.7972 30.5005 21.2255 30.6178 21.71 30.7453C21.97 30.8218 22.1893 30.8779 22.4392 30.9544L22.3933 24.7943C22.0261 24.7484 21.7049 24.6719 21.2918 24.6821Z" fill="#F3BE00"/>
</svg>
