<svg width="39" height="44" viewBox="0 0 39 44" fill="none" xmlns="http://www.w3.org/2000/svg">
<path d="M37.4933 6.18845C37.4173 5.633 37.0243 5.1761 36.493 5.02593L19.4667 0.210647C19.224 0.141943 18.9676 0.141943 18.7247 0.210647L1.69835 5.02593C1.16711 5.1761 0.774126 5.63281 0.698076 6.18845C0.599322 6.9106 -1.65356 23.9732 4.12494 32.4613C9.89661 40.9393 18.4111 43.1119 18.7706 43.2004C18.8775 43.2266 18.9864 43.2396 19.0957 43.2396C19.205 43.2396 19.3139 43.2265 19.4207 43.2004C19.7805 43.1119 28.295 40.9393 34.0664 32.4613C39.8449 23.9734 37.5921 6.91078 37.4933 6.18845ZM30.0755 16.1498L18.4618 27.9603C18.1916 28.2351 17.8372 28.3727 17.483 28.3727C17.1287 28.3727 16.7743 28.2353 16.5041 27.9603L9.32346 20.658C9.06375 20.394 8.91793 20.0359 8.91793 19.6625C8.91793 19.2891 9.06393 18.931 9.32346 18.667L10.7492 17.2171C11.2899 16.6675 12.1665 16.6673 12.7069 17.2171L17.483 22.0741L26.692 12.7088C26.9515 12.4446 27.3037 12.2963 27.6709 12.2963C28.038 12.2963 28.3902 12.4446 28.6497 12.7088L30.0755 14.1587C30.6161 14.7085 30.6161 15.6 30.0755 16.1498Z" fill="#F3BE00"/>
</svg>
