<svg width="45" height="43" viewBox="0 0 45 43" fill="none" xmlns="http://www.w3.org/2000/svg">
<path d="M0.398926 36.8618V19.6626C0.398926 19.21 0.57272 18.7857 0.920308 18.4462C1.2679 18.1068 1.67341 17.9371 2.16583 17.9371H10.1024C10.5659 17.9371 11.0004 18.1068 11.3479 18.4462C11.6955 18.7857 11.8693 19.1817 11.8693 19.6626V36.8618C11.8693 37.3144 11.6955 37.7388 11.3479 38.0782C11.0004 38.4177 10.5948 38.5874 10.1024 38.5874H2.16583C1.70238 38.5874 1.2679 38.4177 0.920308 38.0782C0.57272 37.7388 0.398926 37.3427 0.398926 36.8618ZM3.93274 33.439C3.93274 33.9199 4.10653 34.3442 4.45412 34.6553C4.80171 34.9948 5.20722 35.1645 5.69964 35.1645C6.16309 35.1645 6.59758 34.9948 6.94516 34.6553C7.29275 34.3159 7.46655 33.9199 7.46655 33.439C7.46655 32.9863 7.29275 32.562 6.94516 32.2226C6.59758 31.8831 6.19206 31.7134 5.69964 31.7134C5.20722 31.7134 4.77274 31.8831 4.45412 32.2226C4.10653 32.562 3.93274 32.9581 3.93274 33.439ZM13.6073 36.8618V19.6343C13.6073 19.1817 13.7811 18.7857 14.0997 18.4745C14.4183 18.1351 14.8238 17.9653 15.2873 17.9371C15.7218 17.9088 16.4169 17.3713 17.3728 16.3529C18.3287 15.3345 19.2556 14.2596 20.1535 13.0998C21.399 11.5439 22.3259 10.469 22.9342 9.87493C23.2528 9.56376 23.5425 9.11115 23.7742 8.57367C24.0059 8.0362 24.1797 7.61188 24.2666 7.27242C24.3535 6.93296 24.4694 6.39549 24.6432 5.66C24.759 4.95279 24.8749 4.41532 24.9908 4.01928C25.0777 3.62325 25.2804 3.17064 25.5411 2.63316C25.8018 2.09569 26.1204 1.64308 26.468 1.30362C26.8156 0.964163 27.2211 0.794434 27.7135 0.794434C28.5535 0.794434 29.3067 0.879298 29.9729 1.07732C30.6391 1.27533 31.1894 1.50164 31.6239 1.78452C32.0584 2.0674 32.4349 2.43515 32.7246 2.85947C33.0143 3.31208 33.246 3.70811 33.3908 4.07586C33.5356 4.4436 33.6515 4.86793 33.7094 5.4054C33.7963 5.94288 33.8253 6.33891 33.8543 6.62179C33.8543 6.90467 33.8543 7.24413 33.8543 7.66845C33.8543 8.34737 33.7674 9.02628 33.5936 9.7052C33.4198 10.3841 33.246 10.9216 33.0722 11.3176C32.8984 11.7137 32.6377 12.2228 32.3191 12.8169C32.2611 12.93 32.1743 13.0715 32.0584 13.2978C31.9425 13.5241 31.8267 13.7221 31.7687 13.8918C31.6818 14.0616 31.6239 14.2879 31.537 14.5425H39.155C40.5743 14.5425 41.8198 15.0517 42.8626 16.07C43.9053 17.0884 44.4267 18.3048 44.4267 19.6909C44.4267 21.2185 43.9343 22.5763 42.9205 23.7078C43.1812 24.4999 43.326 25.1788 43.326 25.7446C43.384 27.1024 42.9784 28.3471 42.1384 29.422C42.4571 30.4121 42.4571 31.4871 42.1384 32.562C41.8778 33.5804 41.3564 34.429 40.6612 35.0797C40.835 37.0881 40.3715 38.7006 39.2998 39.9452C38.1122 41.3031 36.3163 42.0103 33.8832 42.0386H32.8984H30.8129H30.3494C29.1329 42.0386 27.8294 41.8971 26.3811 41.6142C24.9618 41.3313 23.8321 41.0768 23.0501 40.8222C22.239 40.5676 21.1383 40.2281 19.748 39.7472C17.4887 38.9834 16.0404 38.5874 15.4031 38.5591C14.9397 38.5308 14.5052 38.3611 14.1576 38.0216C13.7811 37.7388 13.6073 37.3427 13.6073 36.8618Z" fill="#F3BE00"/>
</svg>
